<?xml version="1.0" encoding="UTF-8"?><svg id="Layer_1" xmlns="http://www.w3.org/2000/svg" viewBox="0 0 605.47 835.42"><defs><style>.cls-1{fill:#f3e6d3;}.cls-2{fill:#f79983;}.cls-3{fill:#fbbb48;}.cls-4{fill:#f15f42;}.cls-5{fill:#8b6db0;}.cls-6{fill:#cd2628;}.cls-7{fill:#232735;}.cls-8{fill:#75b243;}.cls-9{stroke-width:8px;}.cls-9,.cls-10,.cls-11,.cls-12{fill:none;stroke-miterlimit:10;}.cls-9,.cls-10,.cls-12{stroke:#232735;}.cls-10,.cls-11{stroke-width:7px;}.cls-11{stroke:#fbbb48;}.cls-12{stroke-width:9.08px;}</style></defs><path class="cls-2" d="M36.54,414.12c-2.38-5.7-3.87-12.32-3.13-17.91,.99-7.53,5.96-11.71,11.35-11.42,5.38,.29,11.04,4.37,16,9.64,12.39,13.17,20.97,33.1,29.05,52.23,1.18,2.8,2.43,6.14,1.78,8.68-.52,2.04-2.09,2.75-3.53,3.3-5.59,2.15-21.01,12.83-21.79,3.14-.82-10.17-27.33-41.96-29.71-47.66Z"/><path class="cls-9" d="M86.9,443.47s-19.93-56.14-46.43-57.91"/><g><g><g><g><polygon class="cls-2" points="317.19 489.61 309.64 523.56 317.31 529.1 281.16 553.99 267.23 526.54 278.12 522.04 281.71 483.04 199.56 483.04 191.96 381.6 264.98 291.36 405.91 321.24 385.64 511.94 317.19 489.61"/><path class="cls-8" d="M225.41,351.17l-22.31,53.75c133.87-14.7,200.8,38.54,200.8,38.54l5.07-50.71c-117.14-76.57-183.56-41.58-183.56-41.58Z"/><path class="cls-7" d="M275.84,391.13c-.86,0-1.74-.1-2.62-.31-3.16-.75-5.51-2.61-6.77-5.4-3.87-8.54,3.89-23.59,4.78-25.28l5.38,2.85c-2.84,5.37-6.61,15.52-4.61,19.92,.32,.72,.92,1.59,2.62,1.99,1.46,.34,2.72,.11,3.97-.74,5.09-3.47,7.78-15.16,8.39-19.37l6.03,.86c-.26,1.82-2.78,17.93-10.98,23.53-1.9,1.3-4,1.96-6.18,1.96Z"/><path class="cls-7" d="M306.31,396.37c-.86,0-1.74-.1-2.62-.31-3.16-.75-5.51-2.61-6.77-5.4-3.87-8.54,3.89-23.59,4.78-25.28l5.38,2.85c-2.84,5.37-6.61,15.52-4.61,19.92,.32,.72,.91,1.59,2.62,1.99,1.46,.35,2.72,.11,3.97-.74,5.09-3.47,7.78-15.16,8.39-19.37l6.03,.86c-.26,1.82-2.78,17.93-10.98,23.53-1.9,1.29-4,1.95-6.18,1.95Z"/><path class="cls-7" d="M359.41,479.81l-5.76-1.95c15.28-45.12-27.05-66.15-28.86-67.02l2.64-5.48c.49,.24,49.01,24.19,31.99,74.45Z"/><path class="cls-7" d="M286.85,437.37c-5.69-.69-10.66-2.02-13.3-2.82v-16.11l-27.38-5.07c3.01-51.76,24.97-59.18,25.2-59.25l-1.71-5.87c-1.11,.32-27.11,8.42-29.72,67.51l-.12,2.66,15.35,2.84c-21.7,9.29-26.72,35.04-26.78,35.35l6.02,1.09c.05-.32,5.89-30.29,33.03-33.35v14.57l2.02,.73c.42,.15,4.5,1.57,10.21,2.74v22.96c-10.38-7.99-19.76-10.76-27.93-8.24-13.95,4.31-18.45,22.4-18.64,23.16l5.92,1.43c.04-.15,3.84-15.47,14.52-18.78,7.29-2.26,16.41,1.52,27.13,11.19l5.08,4.59v-35.32c.18,.02,.36,.04,.54,.06-.02-2.05,.18-4.07,.56-6.08Z"/><path class="cls-10" d="M326.65,470.74s-6.63-29.93-43.48-29.93"/></g><g><polygon class="cls-7" points="353.7 523.08 376.01 532.2 379.56 562.12 343.05 542.6 353.7 523.08"/><path class="cls-7" d="M418.1,308.58l-167.34-31.44-2.53,17.75c-191.68,92.29-51.73,206.89-51.73,206.89l18.25-3.55c-19.78-85.19,68.96-203.34,68.96-203.34l49.98,16.66c66.43,96.34,25.07,207.98,25.07,207.98l19.27,6.08c185.08-25.35,40.06-217.03,40.06-217.03Z"/><polygon class="cls-7" points="197.01 507.86 216.78 504.32 230.47 531.7 182.81 536.01 197.01 507.86"/><path class="cls-5" d="M225.89,499.58c.92,3.95-7.39,9.28-18.57,11.9-11.18,2.62-20.99,1.53-21.92-2.42-.92-3.95,7.39-9.28,18.57-11.9,11.18-2.62,20.99-1.53,21.92,2.42Z"/><path class="cls-5" d="M385.44,533.61c-1.38,3.82-11.25,3.75-22.05-.15-10.8-3.91-18.43-10.17-17.05-13.99,1.38-3.81,11.25-3.74,22.06,.16,10.79,3.9,18.43,10.16,17.05,13.98Z"/></g></g><g><g><g><path class="cls-2" d="M94.05,429.25s-13.43,13.73-18.25,24.53c0-.18-.02-.36-.03-.54-2.03,3.54-5.86,6.39-9.03,8.35-5.68,3.52-13.11,7.88-19.88,8.63,.57,.03,1.15,.06,1.73,.07,.24,19.34,6.04,57.16,51.54,25.89v29.45l21.84-2.56,15.21-62.86-43.14-30.97Z"/><path class="cls-7" d="M93.72,425.27l-1.82,1.86c-5.73,5.84-23.24,24.84-20.5,35.65l-23.38,4.51,1.15,5.97,27.05-5.22c.46,.18,.84,.47,1.35,.57,5.62,1.07,13.66-3.05,19.65-6.92-.02,.63-.02,1.25,0,1.86l-2.99,11.31-44.32,10.06,1.35,5.94,41.22-9.35-1.66,6.28-32.52,11.62,2.05,5.73,28.58-10.21-1.74,6.58,5.88,1.56,7.47-28.25c2.89,5.04,7.08,8.65,10.26,10.48l3.05-5.27c-.48-.28-9.58-5.75-10.5-15.82l4.89-18.51-7.21,5.77c-6.47,5.18-17.66,12.07-22.3,11.17-.74-.15-1.05-.46-1.29-.89-2.24-4.03,6.72-17.54,16.98-28.49l39.29,28.2-14.73,60.88,5.91,1.43,15.7-64.86-46.89-33.65Z"/></g><g><path class="cls-3" d="M387.34,607.53l-37.72-48.98-119.14,9.13-.73,2.56-7.91-16.25s-59.82,44.12-83.12-42.05l-72.53,6.08s.85,65.84,45.88,89.63c-7.3,38.4,28.6,108.98,140.2,139.53,0,0-59.82,38.88-52.7,55.31,7.06,16.37,51.72-12.17,80.63-61.4,0,0,46.61,75.57,76.55,68.46,29.94-7.06-24.83-55.25-50.69-65.41,0,0,129.31-45.09,152.61-113.06,18.56-54.16-32.37-52.27-71.32-23.55Zm-174.24,20.95s-7.51-8.53-18.83-20.64c8.7-2.86,18.01-6.57,27.93-11.32l-9.1,31.96Z"/><path class="cls-6" d="M220.98,644.39c-.44-.69-44.68-68.59-86.69-59.02-9.93,2.26-16.95,10.59-19.27,22.85l-5.98-1.13c2.79-14.75,11.5-24.83,23.9-27.65,46.15-10.45,91.26,58.72,93.15,61.67l-5.12,3.29Z"/><path class="cls-4" d="M286.24,731.87c1.04-1.43,2.04-2.74,3.1-4.23l-4.95-3.54c-57.13,80-80.65,72.35-80.89,72.27l-1.18,2.81-1.28,2.76c.56,.26,2.1,.83,4.72,.83,9.53,0,33.4-7.7,76.56-65.57,30.41,52.11,76.1,66.57,78.08,67.17l1.77-5.82c-.47-.14-46.78-14.83-75.94-66.68Z"/><path class="cls-6" d="M287.3,708.6c.86-2.22,1.69-4.54,2.47-6.99l.51-1.59-15.63-18.88,25.35-9.43-2.12-5.7-27.34,10.17-15.65-18.89-4.69,3.88,33.27,40.16c-11.52,34.31-32.11,42.95-32.32,43.03l1.12,2.83,1.11,2.83c.8-.31,16.38-6.72,28.78-30.15,4.5,24.5,23.28,27.27,23.5,27.29l.78-6.03c-.19-.03-19.13-2.87-19.15-32.53Z"/><g><polygon class="cls-4" points="140.72 510.14 62.49 516.65 69.6 558.57 147.2 531.44 140.72 510.14"/><polygon class="cls-6" points="87.07 547.59 67.32 531.79 71.12 527.04 84.34 537.61 90.35 521.75 106.49 533.39 118.12 516.6 130.94 525.15 136.63 516.13 141.77 519.37 132.76 533.68 119.72 524.98 107.96 541.96 93.23 531.33 87.07 547.59"/></g><g><g><path class="cls-2" d="M289.84,639.26l-47.96-37.08s-29.66,21.3-26.24,61.23l43.22,12.93,3.56-25.86s12.55,34.99,34.23,9.13l-6.8-20.35Z"/><path class="cls-7" d="M245.03,673.35c-.11-1.47-2.53-36.03,17.75-48.65l3.21,5.16c-17.18,10.69-14.92,42.69-14.9,43.01l-6.07,.47Z"/><path class="cls-7" d="M230.82,669.06c-.1-1.49-2.12-36.6,20.49-46.47l2.44,5.58c-18.74,8.18-16.88,40.17-16.86,40.49l-6.07,.4Z"/><path class="cls-7" d="M220.56,665.96c-.1-1.76-2.08-43.14,24.05-52.93l2.14,5.7c-21.95,8.23-20.14,46.52-20.12,46.9l-6.07,.33Z"/></g><path class="cls-6" d="M300.69,692.07l-17.49-66.01,65.92-22.18-16.99-40.59,5.62-2.35,19.52,46.62-66.72,22.44,14.74,55.64c64.85-5.24,91.91-45.2,97.01-53.8l-55.06-71.43,4.82-3.71,57.45,74.52-.84,1.71c-1.09,2.19-27.53,53.82-105.46,58.97l-2.5,.16Z"/><g><polygon class="cls-4" points="279.92 621.58 298.93 698.78 346.4 686.23 311.48 615.87 279.92 621.58"/><polygon class="cls-6" points="321.48 691.63 298.66 681.02 312.78 667.84 292.5 660.28 304.76 644.38 287.04 637.58 299.51 620.42 304.43 624 296.63 634.73 314.57 641.62 302.35 657.46 324.13 665.57 309.41 679.31 324.05 686.12 321.48 691.63"/></g></g></g></g><g><path class="cls-4" d="M362.82,562.14s-42.59,31.95-87.74,38.03c-45.09,6.08-69.43-48.19-69.43-48.19l61.58-25.44,13.94,27.44,36.14-24.89,45.52,33.04Z"/><polygon class="cls-6" points="281.63 550.46 269.46 523.08 252.53 531.44 280.11 560.73 328.6 536.43 317 524.6 281.63 550.46"/><path class="cls-6" d="M278.28,591.04c-4.43,0-8.8-.39-13.11-1.18-34.43-6.28-51.71-35.31-52.43-36.54l5.26-3.07c.16,.28,16.68,27.9,48.34,33.64,24.84,4.52,52.3-5.3,81.64-29.14l3.84,4.72c-25.83,20.99-50.51,31.57-73.53,31.57Z"/></g></g></g><g><g><path class="cls-1" d="M240.51,258.89s-61.36-130.32-46.15-150.09c15.21-19.78,55.78,51.72,55.78,51.72,0,0-13.69-115.11,9.13-113.59,22.82,1.52,47.75,105.97,47.75,105.97,0,0,32.87-122.2,59.24-116.62,26.37,5.58,12.17,105.98,12.17,105.98,0,0,63.97-108.52,91.06-98.38,27.09,10.14-28.69,124.74-28.69,124.74,0,0,69.98-90.77,96.85-68.46,26.87,22.31-50.65,104.16-50.65,104.16,0,0,63.32-27.59,81.58-13.9,18.25,13.69-60.04,52.87-60.04,52.87,0,0,57.84,2.4,62.49,18.12,4.65,15.72-144.94,38.03-144.94,38.03l-185.59-40.57Z"/><path class="cls-8" d="M500.67,282.01l-3.9-4.68c4.53-3.77,9.67-9.25,8.47-13.94-1.66-6.44-14.42-10.31-18.76-11.16l-4.93-.96,3.14-3.93c4.5-5.62,9.3-13.52,6.63-19.24-3.58-7.67-18.97-9.66-24.6-9.78l-3.61-.08,.68-3.54c2.73-14.18,1.43-23.58-3.76-27.18-8.3-5.74-26.07,2.75-32.23,6.51l-4.9,3,.27-5.74c.76-15.91-2.23-25.69-8.89-29.08-11.66-5.9-33.49,8.35-40.93,14.35l-3.5,2.83-1.32-4.3c-5.23-17.07-12.16-26.51-20.02-27.28-14.2-1.49-30.89,23.65-36.17,33.41l-2.68,4.96-2.68-4.95c-7.66-14.18-15.23-21.14-22.84-20.67-11.86,.74-22.06,20.41-24.98,27.93l-1.62,4.17-3.28-3.05c-9.36-8.69-16.92-12.33-21.36-10.32-6.36,2.94-7.2,17.35-6.99,22.16l-6.08,.26c-.1-2.32-.65-22.79,10.52-27.95,6.44-2.98,14.6-.18,24.87,8.55,3.91-8.35,14.18-26.94,28.54-27.84,9.08-.53,17.78,5.89,25.92,19.23,6.3-10.25,22.62-33.65,39.42-31.95,9.9,.98,17.93,10.21,23.91,27.46,8.38-6.01,29.87-19.59,44.02-12.42,8.09,4.11,12.23,14,12.33,29.45,8-4.03,24.21-10.59,34.12-3.73,6.93,4.8,9.24,14.86,6.88,29.95,6.9,.67,21.88,3.24,26.47,13.06,2.8,6.01,1.25,13.36-4.61,21.88,6.28,1.87,16.79,6.19,18.91,14.47,1.6,6.24-1.92,13.01-10.46,20.13Z"/><rect class="cls-8" x="260.85" y="201.49" width="6.09" height="34.18" transform="translate(-48.36 77.46) rotate(-15.32)"/><rect class="cls-8" x="300.71" y="204.99" width="6.08" height="34.91" transform="translate(-26.49 41.64) rotate(-7.52)"/><rect class="cls-8" x="330.76" y="214.26" width="58.83" height="6.08" transform="translate(79.48 530.61) rotate(-79.24)"/><rect class="cls-8" x="373.37" y="233.26" width="51.92" height="6.09" transform="translate(31.74 519.47) rotate(-68.22)"/><rect class="cls-8" x="403.85" y="244.18" width="45.01" height="6.09" transform="translate(-55 353.05) rotate(-42.51)"/><rect class="cls-8" x="426.49" y="262.69" width="38.23" height="6.09" transform="translate(-70.55 318.25) rotate(-36.62)"/><polygon class="cls-5" points="222.85 156.96 203.09 144.79 203.09 118.93 225.53 137.95 222.85 156.96"/><polygon class="cls-5" points="274.08 128.06 255.32 110.82 263.89 80.39 284.62 104.23 274.08 128.06"/><polygon class="cls-5" points="349.64 116.9 339.5 91.55 357.25 70.76 368.4 96.62 349.64 116.9"/><polygon class="cls-5" points="418.6 98.65 421.14 137.95 452.07 113.35 454.6 75.83 418.6 98.65"/><polygon class="cls-5" points="483 137.95 483 161.53 508.46 156.96 516.98 128.06 483 137.95"/><polygon class="cls-5" points="525.6 202.09 512.92 218.57 531.18 222.44 549.43 205.14 525.6 202.09"/><polygon class="cls-5" points="535.23 254.32 521.03 265.73 537.01 271.57 552.98 262.44 535.23 254.32"/></g><g><polygon class="cls-6" points="230.47 241.65 212.79 306.93 449.53 351.17 454.6 296.41 230.47 241.65"/><path class="cls-4" d="M415.39,313.76l-33.29-29.49-26.92,8.68-21.3-19.32-24.42,7.87-18.85-16.7-45.34,14.62,33.21,32.79,25.59-10.01,21.42,18.63,24.81-9.4,22.59,20.48,42.51-18.17Zm-135.46-8.64l-23.26-22.97,32.5-10.48,13.56,12.01-14.57,4.7,10.73,9.33-18.95,7.41Zm32.61-12.75l-7.26,2.84-4.99-4.35,7.74-2.5,4.52,4Zm14.19,21.5l-16.26-14.15,13.56-5.3-9.28-8.22,17.65-5.69,16.1,14.6-11.98,3.86,8.7,7.89-18.5,7Zm29.95-11.34l-5.06,1.92-3.21-2.91,5.3-1.71,2.98,2.7Zm11.45,2.17l-7.75-7.02,20.28-6.54,23.5,20.81-30.09,12.85-17.39-15.77,11.45-4.34Z"/><rect class="cls-4" x="433.37" y="303.96" width="6.08" height="26.79" transform="translate(37.94 681.2) rotate(-78.42)"/><rect class="cls-4" x="229.52" y="268.35" width="6.09" height="14.42" transform="translate(-87.37 441.88) rotate(-77.3)"/><rect class="cls-4" x="340.2" y="147.82" width="6.08" height="242.65" transform="translate(-1.07 536.92) rotate(-75.97)"/><rect class="cls-4" x="328.91" y="204.88" width="6.09" height="250.05" transform="translate(-56.1 591.51) rotate(-78.81)"/></g></g></g><polyline class="cls-12" points="347.03 349.89 308.48 356.4 310.31 345.95"/><polyline class="cls-12" points="266.48 330.51 292.59 353.01 296.43 343.11"/><polyline class="cls-11" points="154.59 222.45 148.6 251.27 175.88 244.95 157.54 270.76 183.94 269.91 180.56 286.2"/><polyline class="cls-11" points="92.31 311.45 108.47 336.06 123.27 312.29 128.57 343.51 146.63 324.23 155.77 338.13"/><polyline class="cls-11" points="555.37 402.1 529.84 387.43 527.36 415.32 508.54 389.85 501.12 415.21 486.7 406.92"/><polyline class="cls-11" points="529.66 319.78 500.27 318.02 510.47 344.09 482.27 329.67 486.93 355.68 470.32 354.68"/></svg>