<?xml version="1.0" encoding="UTF-8"?><svg id="Layer_1" xmlns="http://www.w3.org/2000/svg" viewBox="0 0 230.12 308.72"><defs><style>.cls-1{fill:#f3e6d3;}.cls-2{fill:#f15f42;}.cls-3{fill:#8b6db0;}</style></defs><path class="cls-2" d="M153.31,220.55c-51.75,50.53-121.64,63.5-121.64,63.5-4.76-47.27,.75-86.32,12.22-118.44,75.79-63.96,133.52-58.5,109.41,54.94Z"/><path class="cls-3" d="M153.31,220.55c-13.52-59.56-69.95-61.46-109.41-54.94C84.58,51.65,200.31,24.82,200.31,24.82c22.21,95.22-7,156.75-47,195.73Z"/><polygon class="cls-1" points="140.92 112.38 140.92 63.87 147.71 63.87 147.71 102.95 191.04 88.45 193.19 94.89 140.92 112.38"/><polygon class="cls-1" points="115.58 146.23 115.58 96.13 122.38 96.13 122.38 137.71 169.53 126.9 171.05 133.52 115.58 146.23"/><path class="cls-1" d="M53.57,211.59c-8.29,19.95-5.36,40.12,6.55,45.07,11.91,4.95,28.28-7.21,36.56-27.16,8.29-19.94,5.36-40.12-6.55-45.07-11.91-4.95-28.28,7.21-36.56,27.16Z"/></svg>